<?xml version="1.0" encoding="UTF-8"?>
<svg xmlns="http://www.w3.org/2000/svg" xmlns:xlink="http://www.w3.org/1999/xlink" version="1.1" id="Capa_1" x="0px" y="0px" viewBox="0 0 512 512" style="enable-background:new 0 0 512 512;" xml:space="preserve" width="512" height="512">
<g>
	<g>
		<path style="fill:#7A6D79;" d="M20.491,491.661l-0.152-0.152c-17.119-17.119-17.119-44.874,0-61.993l101.516-101.516&#10;&#9;&#9;&#9;c5.858-5.858,15.355-5.858,21.213,0l40.932,40.932c5.858,5.858,5.858,15.355,0,21.213L82.484,491.661&#10;&#9;&#9;&#9;C65.366,508.78,37.61,508.78,20.491,491.661z"/>
		<path style="fill:#685E68;" d="M184.001,368.931l-40.932-40.932c-5.858-5.858-15.355-5.858-21.213,0l-4.393,4.393l36.539,36.539&#10;&#9;&#9;&#9;c5.858,5.858,5.858,15.355,0,21.213L52.484,491.661c-4.681,4.681-10.16,8.073-15.996,10.194&#10;&#9;&#9;&#9;c15.508,5.636,33.559,2.244,45.996-10.194l101.516-101.516C189.859,384.287,189.859,374.789,184.001,368.931z"/>
		
			<rect x="156.696" y="308.595" transform="matrix(0.7071 -0.7071 0.7071 0.7071 -181.9884 224.5407)" style="fill:#554E56;" width="46.71" height="46.71"/>
		<circle style="fill:#7A6D79;" cx="317.666" cy="194.334" r="186.834"/>
		<path style="fill:#EFEDEF;" d="M432.68,299.76c-1.45,1.58-2.94,3.13-4.47,4.66c-34.16,34.16-80.24,49.13-124.85,44.9&#10;&#9;&#9;&#9;c-0.08,0-0.16-0.01-0.24-0.02c-34.7-3.34-68.5-18.3-95.08-44.88c-1.53-1.53-3.02-3.08-4.47-4.66&#10;&#9;&#9;&#9;c-56.29-61.07-54.8-156.25,4.47-215.52c60.8-60.8,159.37-60.8,220.17,0C487.48,143.51,488.97,238.69,432.68,299.76z"/>
		<path style="fill:#FED2A4;" d="M432.68,299.76c-1.45,1.58-2.94,3.13-4.47,4.66c-34.16,34.16-80.24,49.13-124.85,44.9&#10;&#9;&#9;&#9;c-0.08,0-0.16-0.01-0.24-0.02c-34.7-3.34-68.5-18.3-95.08-44.88c-1.53-1.53-3.02-3.08-4.47-4.66c13.83-25.73,41-43.22,72.26-43.22&#10;&#9;&#9;&#9;h11.23v-29c-18.58-10.74-31.08-30.83-31.08-53.84v-41.43c0-17.17,6.96-32.7,18.2-43.95c11.24-11.24,26.78-18.2,43.94-18.2&#10;&#9;&#9;&#9;c34.33,0,62.15,27.82,62.15,62.15v41.43c0,23.01-12.5,43.1-31.08,53.84v29h11.23C391.68,256.54,418.85,274.03,432.68,299.76z"/>
		<path style="fill:#D7D0D6;" d="M432.677,299.754c56.287-61.077,54.806-156.24-4.464-215.51&#10;&#9;&#9;&#9;c-34.22-34.22-80.406-49.179-125.088-44.879c34.708,3.34,68.508,18.299,95.089,44.879&#10;&#9;&#9;&#9;c53.257,53.258,59.862,135.499,19.818,195.948C423.832,285.923,428.783,292.512,432.677,299.754z"/>
		<path style="fill:#FFBD86;" d="M432.68,299.76c-13.83-25.73-41-43.22-72.26-43.22h-11.23v-29c18.58-10.74,31.08-30.83,31.08-53.84&#10;&#9;&#9;&#9;v-40.512c0-34.009-26.943-62.401-60.945-63.057c-5.597-0.108-11.025,0.539-16.201,1.822c27.077,6.711,47.147,31.161,47.147,60.316&#10;&#9;&#9;&#9;v41.43c0,20.947-10.359,39.474-26.234,50.731c-3.008,2.133-4.846,5.547-4.846,9.234v11.645c0,6.202,5.028,11.23,11.23,11.23l0,0&#10;&#9;&#9;&#9;c28.928,0,54.354,14.978,68.946,37.603c2.086,3.234,1.611,7.507-1.107,10.231c-0.016,0.016-0.031,0.031-0.046,0.046&#10;&#9;&#9;&#9;c-26.581,26.58-60.381,41.54-95.089,44.879c44.683,4.3,90.869-10.66,125.088-44.879c1.528-1.528,3.007-3.087,4.459-4.661H432.68z"/>
	</g>
	<g>
		
			<polyline style="fill:none;stroke:#000000;stroke-width:15;stroke-linecap:round;stroke-linejoin:round;stroke-miterlimit:10;" points="&#10;&#9;&#9;&#9;170.06,308.91 147.02,331.95 180.05,364.98 203.09,341.94 &#9;&#9;"/>
		<path style="fill:none;stroke:#000000;stroke-width:15;stroke-linecap:round;stroke-linejoin:round;stroke-miterlimit:10;" d="&#10;&#9;&#9;&#9;M430.55,343.24c-73.23,55.66-178.14,50.06-245-16.79c-72.96-72.97-72.96-191.26,0-264.23c72.97-72.96,191.26-72.96,264.23,0&#10;&#9;&#9;&#9;c71.25,71.26,72.92,185.74,5.01,259.03"/>
		<path style="fill:none;stroke:#000000;stroke-width:15;stroke-linecap:round;stroke-linejoin:round;stroke-miterlimit:10;" d="&#10;&#9;&#9;&#9;M217.74,75.32c61.17-51.72,152.81-48.74,210.47,8.92c60.8,60.8,60.8,159.38,0,220.18c-60.8,60.8-159.37,60.8-220.17,0&#10;&#9;&#9;&#9;c-56.12-56.12-60.44-144.44-12.95-205.51"/>
		<path style="fill:none;stroke:#000000;stroke-width:15;stroke-linecap:round;stroke-linejoin:round;stroke-miterlimit:10;" d="&#10;&#9;&#9;&#9;M82.2,367.66L121.86,328c5.85-5.86,15.35-5.86,21.21,0L184,368.93c5.86,5.86,5.86,15.36,0,21.21L82.48,491.66&#10;&#9;&#9;&#9;c-17.11,17.12-44.87,17.12-61.99,0l-0.15-0.15c-17.12-17.12-17.12-44.88,0-61.99l38.75-38.74"/>
		
			<line style="fill:none;stroke:#000000;stroke-width:15;stroke-linecap:round;stroke-linejoin:round;stroke-miterlimit:10;" x1="100.678" y1="349.176" x2="162.824" y2="411.321"/>
		
			<line style="fill:none;stroke:#000000;stroke-width:15;stroke-linecap:round;stroke-linejoin:round;stroke-miterlimit:10;" x1="33.382" y1="416.473" x2="95.527" y2="478.618"/>
		<path style="fill:none;stroke:#000000;stroke-width:15;stroke-linecap:round;stroke-linejoin:round;stroke-miterlimit:10;" d="&#10;&#9;&#9;&#9;M432.68,299.76c-13.83-25.73-41-43.22-72.26-43.22h-11.23v-29c18.58-10.74,31.08-30.83,31.08-53.84v-41.43&#10;&#9;&#9;&#9;c0-34.33-27.82-62.15-62.15-62.15c-17.16,0-32.7,6.96-43.94,18.2c-11.24,11.25-18.2,26.78-18.2,43.95v41.43&#10;&#9;&#9;&#9;c0,23.01,12.5,43.1,31.08,53.84v29h-11.23c-31.26,0-58.43,17.49-72.26,43.22"/>
		<g>
			<path style="fill:none;stroke:#000000;stroke-width:15;stroke-linecap:round;stroke-linejoin:round;stroke-miterlimit:10;" d="&#10;&#9;&#9;&#9;&#9;M286.24,148.592c0-1.509,0.105-2.994,0.308-4.447c2.193-15.715,15.841-27.761,32.235-27.431&#10;&#9;&#9;&#9;&#9;c16.585,0.334,30.323,13.616,31.183,30.182c0.953,18.357-13.669,33.581-31.841,33.581v33.341"/>
		</g>
		
			<line style="fill:none;stroke:#000000;stroke-width:15;stroke-linecap:round;stroke-linejoin:round;stroke-miterlimit:10;" x1="318.124" y1="244.015" x2="318.124" y2="244.015"/>
	</g>
</g>















</svg>
