<?xml version="1.0" encoding="UTF-8" standalone="no"?>
<!-- Created with Inkscape (http://www.inkscape.org/) -->

<svg
   version="1.1"
   id="svg1965"
   xml:space="preserve"
   width="682.66669"
   height="682.66669"
   viewBox="0 0 682.66669 682.66669"
   xmlns="http://www.w3.org/2000/svg"
   xmlns:svg="http://www.w3.org/2000/svg"><defs
     id="defs1969"><clipPath
       clipPathUnits="userSpaceOnUse"
       id="clipPath1979"><path
         d="M 0,512 H 512 V 0 H 0 Z"
         id="path1977" /></clipPath></defs><g
     id="g1971"
     transform="matrix(1.3333333,0,0,-1.3333333,0,682.66667)"><g
       id="g1973"><g
         id="g1975"
         clip-path="url(#clipPath1979)"><g
           id="g1981"
           transform="translate(469.5,43)"><path
             d="m 0,0 h -427 c -19.33,0 -35,15.67 -35,35 v 296 c 0,11.046 8.954,20 20,20 H 15 c 11.046,0 20,-8.954 20,-20 V 35 C 35,15.67 19.33,0 0,0"
             style="fill:#e29a6c;fill-opacity:1;fill-rule:nonzero;stroke:none"
             id="path1983" /></g><g
           id="g1985"
           transform="translate(504.5,374)"><path
             d="m 0,0 v -296 c 0,-19.33 -15.67,-35 -35,-35 h -30 c 19.33,0 35,15.67 35,35 V 0 c 0,11.05 -8.95,20 -20,20 h 30 C -8.95,20 0,11.05 0,0"
             style="fill:#ce845c;fill-opacity:1;fill-rule:nonzero;stroke:none"
             id="path1987" /></g><g
           id="g1989"
           transform="translate(464.5,73)"><path
             d="m 0,0 h -198 c -5.523,0 -10,4.477 -10,10 v 331 c 0,5.523 4.477,10 10,10 H 0 c 5.523,0 10,-4.477 10,-10 V 10 C 10,4.477 5.523,0 0,0"
             style="fill:#ffffff;fill-opacity:1;fill-rule:nonzero;stroke:none"
             id="path1991" /></g><g
           id="g1993"
           transform="translate(474.5,414)"><path
             d="m 0,0 v -331 c 0,-5.52 -4.48,-10 -10,-10 h -30 c 5.52,0 10,4.48 10,10 V 0 c 0,5.52 -4.48,10 -10,10 h 30 C -4.48,10 0,5.52 0,0"
             style="fill:#f2f2f2;fill-opacity:1;fill-rule:nonzero;stroke:none"
             id="path1995" /></g><g
           id="g1997"
           transform="translate(246.5,73)"><path
             d="m 0,0 h -199 c -5.523,0 -10,4.477 -10,10 v 331 c 0,5.523 4.477,10 10,10 H 0 c 5.523,0 10,-4.477 10,-10 V 10 C 10,4.477 5.523,0 0,0"
             style="fill:#fcf1f2;fill-opacity:1;fill-rule:nonzero;stroke:none"
             id="path1999" /></g><g
           id="g2001"
           transform="translate(405,322)"><path
             d="m 0,0 h -298 c -11.046,0 -20,8.954 -20,20 v 107 c 0,11.046 8.954,20 20,20 H 0 c 11.046,0 20,-8.954 20,-20 V 20 C 20,8.954 11.046,0 0,0"
             style="fill:#baf39a;fill-opacity:1;fill-rule:nonzero;stroke:none"
             id="path2003" /></g><g
           id="g2005"
           transform="translate(425,449)"><path
             d="m 0,0 v -107 c 0,-11.05 -8.95,-20 -20,-20 h -30 c 11.05,0 20,8.95 20,20 V 0 c 0,11.05 -8.95,20 -20,20 h 30 C -8.95,20 0,11.05 0,0"
             style="fill:#9ae59c;fill-opacity:1;fill-rule:nonzero;stroke:none"
             id="path2007" /></g><g
           id="g2009"
           transform="translate(439.5,208)"><path
             d="m 0,0 h -148 c -2.761,0 -5,2.239 -5,5 v 74 c 0,2.761 2.239,5 5,5 H 0 c 2.761,0 5,-2.239 5,-5 V 5 C 5,2.239 2.761,0 0,0"
             style="fill:#ffe077;fill-opacity:1;fill-rule:nonzero;stroke:none"
             id="path2011" /></g><g
           id="g2013"
           transform="translate(220.5,208)"><path
             d="m 0,0 h -148 c -2.761,0 -5,2.239 -5,5 v 74 c 0,2.761 2.239,5 5,5 H 0 c 2.761,0 5,-2.239 5,-5 V 5 C 5,2.239 2.761,0 0,0"
             style="fill:#ffd05b;fill-opacity:1;fill-rule:nonzero;stroke:none"
             id="path2015" /></g><g
           id="g2017"
           transform="translate(190.7261,322)"><path
             d="m 0,0 h -83.726 c -11.046,0 -20,8.954 -20,20 v 107 c 0,11.046 8.954,20 20,20 h 298 c 11.046,0 20,-8.954 20,-20 V 20 c 0,-11.046 -8.954,-20 -20,-20 H 35"
             style="fill:none;stroke:#000000;stroke-width:15;stroke-linecap:round;stroke-linejoin:round;stroke-miterlimit:10;stroke-dasharray:none;stroke-opacity:1"
             id="path2019" /></g><g
           id="g2021"
           transform="translate(504.5,102.7197)"><path
             d="m 0,0 v -24.72 c 0,-19.33 -15.67,-35 -35,-35 h -427 c -19.33,0 -35,15.67 -35,35 v 296 c 0,11.046 8.954,20 20,20 h 7.538"
             style="fill:none;stroke:#000000;stroke-width:15;stroke-linecap:round;stroke-linejoin:round;stroke-miterlimit:10;stroke-dasharray:none;stroke-opacity:1"
             id="path2023" /></g><g
           id="g2025"
           transform="translate(476.2231,394)"><path
             d="m 0,0 h 8.277 c 11.046,0 20,-8.954 20,-20 v -236.28"
             style="fill:none;stroke:#000000;stroke-width:15;stroke-linecap:round;stroke-linejoin:round;stroke-miterlimit:10;stroke-dasharray:none;stroke-opacity:1"
             id="path2027" /></g><g
           id="g2029"
           transform="translate(426.6689,424)"><path
             d="m 0,0 h 37.831 c 5.523,0 10,-4.477 10,-10 v -331 c 0,-5.523 -4.477,-10 -10,-10 h -198 c -5.523,0 -10,4.477 -10,10"
             style="fill:none;stroke:#000000;stroke-width:15;stroke-linecap:round;stroke-linejoin:round;stroke-miterlimit:10;stroke-dasharray:none;stroke-opacity:1"
             id="path2031" /></g><g
           id="g2033"
           transform="translate(256.5,320.7451)"><path
             d="m 0,0 v -237.745 c 0,-5.523 -4.477,-10 -10,-10 h -199 c -5.523,0 -10,4.477 -10,10 v 331 c 0,5.523 4.477,10 10,10 h 37.22"
             style="fill:none;stroke:#000000;stroke-width:15;stroke-linecap:round;stroke-linejoin:round;stroke-miterlimit:10;stroke-dasharray:none;stroke-opacity:1"
             id="path2035" /></g><g
           id="g2037"
           transform="translate(439.5,208)"><path
             d="m 0,0 h -148 c -2.761,0 -5,2.239 -5,5 v 74 c 0,2.761 2.239,5 5,5 H 0 c 2.761,0 5,-2.239 5,-5 V 5 C 5,2.239 2.761,0 0,0 Z"
             style="fill:none;stroke:#000000;stroke-width:15;stroke-linecap:round;stroke-linejoin:round;stroke-miterlimit:10;stroke-dasharray:none;stroke-opacity:1"
             id="path2039" /></g><g
           id="g2041"
           transform="translate(301.5,118)"><path
             d="M 0,0 H 88"
             style="fill:none;stroke:#000000;stroke-width:15;stroke-linecap:round;stroke-linejoin:round;stroke-miterlimit:10;stroke-dasharray:none;stroke-opacity:1"
             id="path2043" /></g><g
           id="g2045"
           transform="translate(301.5,148)"><path
             d="M 0,0 H 128"
             style="fill:none;stroke:#000000;stroke-width:15;stroke-linecap:round;stroke-linejoin:round;stroke-miterlimit:10;stroke-dasharray:none;stroke-opacity:1"
             id="path2047" /></g><g
           id="g2049"
           transform="translate(301.5,178)"><path
             d="M 0,0 H 128"
             style="fill:none;stroke:#000000;stroke-width:15;stroke-linecap:round;stroke-linejoin:round;stroke-miterlimit:10;stroke-dasharray:none;stroke-opacity:1"
             id="path2051" /></g><g
           id="g2053"
           transform="translate(220.5,208)"><path
             d="m 0,0 h -148 c -2.761,0 -5,2.239 -5,5 v 74 c 0,2.761 2.239,5 5,5 H 0 c 2.761,0 5,-2.239 5,-5 V 5 C 5,2.239 2.761,0 0,0 Z"
             style="fill:none;stroke:#000000;stroke-width:15;stroke-linecap:round;stroke-linejoin:round;stroke-miterlimit:10;stroke-dasharray:none;stroke-opacity:1"
             id="path2055" /></g><g
           id="g2057"
           transform="translate(82.5,118)"><path
             d="M 0,0 H 88"
             style="fill:none;stroke:#000000;stroke-width:15;stroke-linecap:round;stroke-linejoin:round;stroke-miterlimit:10;stroke-dasharray:none;stroke-opacity:1"
             id="path2059" /></g><g
           id="g2061"
           transform="translate(82.5,148)"><path
             d="M 0,0 H 128"
             style="fill:none;stroke:#000000;stroke-width:15;stroke-linecap:round;stroke-linejoin:round;stroke-miterlimit:10;stroke-dasharray:none;stroke-opacity:1"
             id="path2063" /></g><g
           id="g2065"
           transform="translate(82.5,178)"><path
             d="M 0,0 H 128"
             style="fill:none;stroke:#000000;stroke-width:15;stroke-linecap:round;stroke-linejoin:round;stroke-miterlimit:10;stroke-dasharray:none;stroke-opacity:1"
             id="path2067" /></g><g
           id="g2069"
           transform="translate(130.2031,354.3853)"><path
             d="m 0,0 30.427,79.89 c 0.621,1.52 2.773,1.522 3.398,0.003 L 63.976,0"
             style="fill:none;stroke:#000000;stroke-width:15;stroke-linecap:round;stroke-linejoin:round;stroke-miterlimit:10;stroke-dasharray:none;stroke-opacity:1"
             id="path2071" /></g><g
           id="g2073"
           transform="translate(139.6924,374.2822)"><path
             d="M 0,0 H 45.15"
             style="fill:none;stroke:#000000;stroke-width:15;stroke-linecap:round;stroke-linejoin:round;stroke-miterlimit:10;stroke-dasharray:none;stroke-opacity:1"
             id="path2075" /></g><g
           id="g2077"
           transform="translate(271.5933,417.9692)"><path
             d="m 0,0 c 0,-10.297 -8.348,-18.645 -18.646,-18.645 -5.106,0 -23.537,-0.083 -23.537,-0.083 V 0 18.646 h 23.537 C -8.348,18.646 0,10.298 0,0 Z"
             style="fill:none;stroke:#000000;stroke-width:15;stroke-linecap:round;stroke-linejoin:round;stroke-miterlimit:10;stroke-dasharray:none;stroke-opacity:1"
             id="path2079" /></g><g
           id="g2081"
           transform="translate(278.8691,377.4912)"><path
             d="m 0,0 c 0,-12.046 -9.765,-21.811 -21.811,-21.811 -5.974,0 -27.648,-0.097 -27.648,-0.097 V 0 21.811 h 27.648 C -9.765,21.811 0,12.046 0,0 Z"
             style="fill:none;stroke:#000000;stroke-width:15;stroke-linecap:round;stroke-linejoin:round;stroke-miterlimit:10;stroke-dasharray:none;stroke-opacity:1"
             id="path2083" /></g><g
           id="g2085"
           transform="translate(378.9253,429.6953)"><path
             d="m 0,0 c -6.466,4.369 -14.262,6.919 -22.653,6.919 -22.376,0 -40.515,-18.139 -40.515,-40.515 0,-22.376 18.139,-40.516 40.515,-40.516 9.088,0 16.563,2.992 22.236,8.045 1.174,1.046 2.271,2.179 3.289,3.393"
             style="fill:none;stroke:#000000;stroke-width:15;stroke-linecap:round;stroke-linejoin:round;stroke-miterlimit:10;stroke-dasharray:none;stroke-opacity:1"
             id="path2087" /></g></g></g></g></svg>
