<svg id="Capa_1" enable-background="new 0 0 512 512" height="512" viewBox="0 0 512 512" width="512" xmlns="http://www.w3.org/2000/svg"><g><g><path clip-rule="evenodd" d="m436.041.086h-284.158c-4.906 0-8.877 3.971-8.877 8.877v27.1 401.645l336.983 28.939h23.127c4.877 0 8.877-4.001 8.877-8.877v-377.933l-51.949-29.29z" fill="#f9f7f8" fill-rule="evenodd"/></g><g><path clip-rule="evenodd" d="m418.023 437.622h-39.421l-22.544 34.726 22.544 39.652h39.421l17.232-37.194z" fill="#a1d4ff" fill-rule="evenodd"/></g><g><path clip-rule="evenodd" d="m143.006 437.622v-401.645h-42.721c-4.877 0-8.877 4.001-8.877 8.877v230.872 165.809l1.402-.467c5.198-1.986 7.038-2.833 9.082-3.183 1.898-.35 4.001-.263 9.228-.263z" fill="#a1d4ff" fill-rule="evenodd"/></g><g><path clip-rule="evenodd" d="m378.602 437.622h-235.596-31.888c-5.227 0-7.33-.088-9.228.263l-16.904 36.926 16.904 36.926c.876.175 1.84.234 3.125.263h5.373.73 267.484z" fill="#ffe07d" fill-rule="evenodd"/></g><g><path clip-rule="evenodd" d="m511.993 79.751-75.952-79.751v70.873c0 4.877 4.001 8.877 8.877 8.877h67.075z" fill="#a1d4ff" fill-rule="evenodd"/></g><g><path d="m117.206 35.977h25.799v402.264h-25.799z" fill="#80b4fb"/></g><g><path clip-rule="evenodd" d="m101.861 474.826.029-36.941c-2.044.35-3.884 1.197-9.082 3.183l-1.402.467-40.619 13.696-11.13 19.575 11.13 19.585 42.021 14.163c5.198 1.986 7.038 2.833 9.082 3.183z" fill="#ffe5c1" fill-rule="evenodd"/></g><g><path clip-rule="evenodd" d="m50.788 455.231-46.313 15.652c-2.949 1.11-4.468 2.511-4.468 3.913v.058c0 1.372 1.518 2.774 4.468 3.884l46.313 15.652z" fill="#375e7d" fill-rule="evenodd"/></g><g><path clip-rule="evenodd" d="m479.988 496.873v-22.048-8.264-13.813c0-8.323-6.804-15.127-15.126-15.127h-46.839v74.379h46.839c8.323 0 15.126-6.804 15.126-15.127z" fill="#eb5468" fill-rule="evenodd"/></g><g><path clip-rule="evenodd" d="m511.993 79.837h-67.075c-4.877 0-8.877-4.001-8.877-8.877v-70.874h-68.389c116.134 158.655 85.209 385.263 65.294 437.622h31.917c8.322 0 15.126 6.804 15.126 15.127v13.813h23.127c4.877 0 8.877-4.001 8.877-8.877z" fill="#dddaec" fill-rule="evenodd"/></g><g><path d="m334.878 188.108c-.023 0-.046 0-.069-.001-4.267-.037-7.696-3.526-7.659-7.793.037-4.216.074-8.903.11-13.786h-28.798c-2.734 0-5.264-1.445-6.654-3.799-1.389-2.354-1.432-5.268-.11-7.661 4.117-7.458 24.869-44.929 29.087-50.133 3.721-4.552 8.737-6.378 13.434-4.911 4.736 1.479 8.085 6.06 8.534 11.671.224 2.608.169 21.705.065 39.38h1.577c4.267 0 7.727 3.459 7.727 7.727 0 4.267-3.459 7.727-7.727 7.727h-1.682c-.047 6.273-.09 11.344-.112 13.921-.035 4.243-3.488 7.657-7.723 7.658zm-23.285-37.034h15.77c.061-10.501.102-20.627.096-27.836-4.084 6.938-9.91 17.179-15.866 27.836z" fill="#2b4d66"/></g><g><path d="m248.937 176.719c-.02 0-.04 0-.06 0-2.954-.023-5.636-1.728-6.911-4.392l-25.962-54.275h-23.427c-4.267 0-7.727-3.459-7.727-7.727s3.459-7.727 7.727-7.727h28.296c2.975 0 5.686 1.708 6.97 4.392l21.228 44.379 37.611-75.615c1.306-2.625 3.986-4.285 6.918-4.285h86.419c4.267 0 7.727 3.459 7.727 7.727s-3.459 7.727-7.727 7.727h-81.633l-42.534 85.511c-1.304 2.626-3.984 4.285-6.915 4.285z" fill="#2b4d66"/></g><g fill="#2b4d66"><path d="m401.585 219.422c-4.033-1.396-8.432.745-9.827 4.778l-12.293 35.565-12.632-35.623c-1.427-4.022-5.843-6.123-9.864-4.7-4.022 1.426-6.126 5.843-4.7 9.864l19.103 53.873-6.917 20.012c-1.394 4.033.746 8.433 4.778 9.827.836.289 1.687.426 2.525.426 3.203 0 6.197-2.007 7.302-5.204l27.303-78.992c1.395-4.032-.745-8.432-4.778-9.826z"/><path d="m266.388 251.689 15.321-20.312c2.569-3.407 1.891-8.251-1.516-10.821-3.409-2.57-8.252-1.891-10.822 1.516l-12.689 16.822-12.773-16.839c-2.578-3.399-7.425-4.065-10.826-1.486-3.399 2.579-4.065 7.426-1.486 10.826l15.414 20.321-17.442 23.124c-2.569 3.407-1.891 8.252 1.516 10.822 1.393 1.051 3.027 1.558 4.647 1.558 2.342 0 4.656-1.06 6.175-3.074l14.81-19.635 15.616 20.587c1.52 2.004 3.827 3.057 6.162 3.057 1.627 0 3.268-.512 4.664-1.571 3.399-2.579 4.065-7.426 1.486-10.826z"/><path d="m338.322 244.434h-12.948v-12.919c0-4.267-3.459-7.727-7.727-7.727-4.267 0-7.727 3.459-7.727 7.727v12.919h-13.415c-4.267 0-7.727 3.459-7.727 7.727 0 4.267 3.459 7.727 7.727 7.727h13.415v13.445c0 4.267 3.459 7.727 7.727 7.727 4.267 0 7.727-3.459 7.727-7.727v-13.445h12.948c4.267 0 7.727-3.459 7.727-7.727s-3.46-7.727-7.727-7.727z"/></g><g><path d="m211.384 306.668c-1.977 0-3.955-.754-5.463-2.263-13.577-13.577-21.054-31.627-21.054-50.825 0-19.2 7.479-37.243 21.057-50.806 3.019-3.016 7.911-3.013 10.927.006s3.013 7.911-.006 10.927c-10.656 10.644-16.525 24.805-16.525 39.874 0 15.07 5.87 29.24 16.528 39.898 3.018 3.017 3.018 7.91 0 10.927-1.509 1.508-3.487 2.262-5.464 2.262z" fill="#2b4d66"/></g><g><path d="m419.94 306.668c-1.977 0-3.955-.755-5.463-2.263-3.018-3.017-3.018-7.91 0-10.927 10.658-10.659 16.528-24.828 16.528-39.898 0-15.069-5.869-29.229-16.525-39.874-3.019-3.016-3.022-7.908-.006-10.927 3.015-3.019 7.907-3.023 10.927-.006 13.579 13.563 21.057 31.607 21.057 50.806 0 19.198-7.477 37.248-21.054 50.825-1.509 1.51-3.487 2.264-5.464 2.264z" fill="#2b4d66"/></g><g><path d="m259.245 349.829h-53.613c-4.267 0-7.727-3.459-7.727-7.727 0-4.267 3.459-7.727 7.727-7.727h53.613c4.267 0 7.727 3.459 7.727 7.727s-3.46 7.727-7.727 7.727z" fill="#2b4d66"/></g><g><path d="m259.245 383.061h-53.613c-4.267 0-7.727-3.459-7.727-7.727 0-4.267 3.459-7.727 7.727-7.727h53.613c4.267 0 7.727 3.459 7.727 7.727 0 4.267-3.46 7.727-7.727 7.727z" fill="#2b4d66"/></g><g><path clip-rule="evenodd" d="m378.602 484.054h-267.484-.73-5.373c-1.285-.029-2.248-.088-3.125-.263v27.946c.876.175 1.84.234 3.125.263h5.373.73 267.484z" fill="#ffd064" fill-rule="evenodd"/></g><g><path clip-rule="evenodd" d="m378.602 484.054h39.422v27.946h-39.422z" fill="#80b4fb" fill-rule="evenodd"/></g><g><path clip-rule="evenodd" d="m479.988 496.873v-22.048-5.899c0 8.323-6.804 15.127-15.126 15.127h-46.839v27.947h46.839c8.323 0 15.126-6.804 15.126-15.127z" fill="#e5384f" fill-rule="evenodd"/></g><g><path clip-rule="evenodd" d="m101.89 511.737v-27.946c-2.044-.35-3.884-1.197-9.082-3.183l-42.021-14.163v27.946l42.021 14.163c5.198 1.986 7.038 2.833 9.082 3.183z" fill="#fed1a3" fill-rule="evenodd"/></g><g><path clip-rule="evenodd" d="m50.788 494.391v-27.946l-16.586-5.607-29.727 10.045c-2.949 1.11-4.468 2.511-4.468 3.913v.058c0 1.372 1.518 2.774 4.468 3.884z" fill="#2b4d66" fill-rule="evenodd"/></g></g></svg>