<svg version="1.1" id="Layer_1" xmlns="http://www.w3.org/2000/svg" xmlns:xlink="http://www.w3.org/1999/xlink" x="0px" y="0px" viewBox="0 0 512 512" style="enable-background:new 0 0 512 512;" xml:space="preserve">
<g>
	<g>
		<g>
			<g>
				<path style="fill:#FDCB50;" d="M335.275,60.772v170.265c0,20.643-16.672,37.369-37.233,37.369H134.139l-69.627,35.84v-35.84&#10;&#9;&#9;&#9;&#9;&#9;H47.244C26.672,268.407,10,251.681,10,231.038V60.772c0-20.643,16.672-37.379,37.244-37.379h250.798&#10;&#9;&#9;&#9;&#9;&#9;C318.603,23.393,335.275,40.129,335.275,60.772z"/>
				<path style="fill:#FD8F01;" d="M54.347,75.768c0-17.99,1.986-35.512,5.721-52.375H47.24C26.673,23.393,10,40.126,10,60.768&#10;&#9;&#9;&#9;&#9;&#9;v170.267c0,20.641,16.673,37.375,37.24,37.375h17.276v35.833l69.623-35.833h16.414C92.141,224.508,54.347,154.561,54.347,75.768&#10;&#9;&#9;&#9;&#9;&#9;z"/>
			</g>
			<path style="fill:#FD8F01;" d="M335.275,178.43v52.608c0,20.643-16.672,37.369-37.233,37.369h-149.54v-52.597&#10;&#9;&#9;&#9;&#9;c0-20.643,16.672-37.379,37.233-37.379H335.275z"/>
		</g>
		<g>
			<g>
				<g>
					<path style="fill:#FFFFFF;" d="M256.783,78.404c-32.486,5.917-57.778,32.374-61.111,65.288&#10;&#9;&#9;&#9;&#9;&#9;&#9;c-0.187,1.844-0.3,33.124-0.328,64.066h72.642v-47.733h-23.278c0,0-9.517-44.711,24.48-44.711v-38.61&#10;&#9;&#9;&#9;&#9;&#9;&#9;C265.57,76.963,261.302,77.581,256.783,78.404z"/>
				</g>
				<g>
					<path style="fill:#FFFFFF;" d="M137.527,78.404c-32.486,5.917-57.778,32.374-61.111,65.288&#10;&#9;&#9;&#9;&#9;&#9;&#9;c-0.187,1.844-0.3,33.124-0.328,64.066h72.642v-47.733h-23.278c0,0-9.517-44.711,24.48-44.711v-38.61&#10;&#9;&#9;&#9;&#9;&#9;&#9;C146.313,76.963,142.045,77.581,137.527,78.404z"/>
				</g>
			</g>
		</g>
		<g>
			<path style="fill:#67CCD1;" d="M213.963,207.758H464.76c20.567,0,37.24,16.733,37.24,37.375v170.267&#10;&#9;&#9;&#9;&#9;c0,20.642-16.673,37.375-37.24,37.375h-17.276v35.833l-69.623-35.833H213.963c-20.567,0-37.24-16.733-37.24-37.375V245.133&#10;&#9;&#9;&#9;&#9;C176.723,224.491,193.396,207.758,213.963,207.758z"/>
			<path style="fill:#27A2CC;" d="M238.818,263.67c0-19.29,2.38-38.021,6.861-55.912h-31.716c-20.567,0-37.24,16.733-37.24,37.375&#10;&#9;&#9;&#9;&#9;v170.267c0,20.641,16.673,37.375,37.24,37.375h124.71C278.42,411.745,238.818,342.359,238.818,263.67z"/>
		</g>
		<g>
			<g>
				<g>
					<path style="fill:#FFFFFF;" d="M258.217,395.554c32.486-5.917,57.778-32.374,61.111-65.288&#10;&#9;&#9;&#9;&#9;&#9;&#9;c0.187-1.844,0.3-33.124,0.328-64.066h-72.642v47.733h23.278c0,0,9.517,44.711-24.48,44.711v38.61&#10;&#9;&#9;&#9;&#9;&#9;&#9;C249.43,396.994,253.698,396.377,258.217,395.554z"/>
				</g>
				<g>
					<path style="fill:#FFFFFF;" d="M377.473,395.554c32.486-5.917,57.778-32.374,61.111-65.288&#10;&#9;&#9;&#9;&#9;&#9;&#9;c0.187-1.844,0.3-33.124,0.328-64.066H366.27v47.733h23.278c0,0,9.517,44.711-24.48,44.711v38.61&#10;&#9;&#9;&#9;&#9;&#9;&#9;C368.687,396.994,372.955,396.377,377.473,395.554z"/>
				</g>
			</g>
		</g>
	</g>
	<g>
		<g>
			<g>
				<path style="fill:none;stroke:#052A75;stroke-width:20;stroke-linecap:round;stroke-linejoin:round;stroke-miterlimit:10;" d="&#10;&#9;&#9;&#9;&#9;&#9;M335.277,202.153V60.768c0-20.642-16.673-37.375-37.24-37.375H47.24C26.673,23.393,10,40.126,10,60.768v170.267&#10;&#9;&#9;&#9;&#9;&#9;c0,20.641,16.673,37.375,37.24,37.375h17.276v35.833l69.623-35.833h38.498"/>
			</g>
		</g>
		<g>
			<g>
				<g>
					
						<line style="fill:none;stroke:#FD6050;stroke-width:20;stroke-linecap:round;stroke-linejoin:round;stroke-miterlimit:10;" x1="461.756" y1="83.426" x2="448.496" y2="96.774"/>
				</g>
				<g>
					
						<line style="fill:none;stroke:#FD6050;stroke-width:20;stroke-linecap:round;stroke-linejoin:round;stroke-miterlimit:10;" x1="387.092" y1="52.296" x2="387.092" y2="71.172"/>
				</g>
				<g>
					
						<line style="fill:none;stroke:#FD6050;stroke-width:20;stroke-linecap:round;stroke-linejoin:round;stroke-miterlimit:10;" x1="492.682" y1="158.581" x2="473.93" y2="158.581"/>
				</g>
			</g>
		</g>
		<g>
			<g>
				<path style="fill:none;stroke:#052A75;stroke-width:20;stroke-linecap:round;stroke-linejoin:round;stroke-miterlimit:10;" d="&#10;&#9;&#9;&#9;&#9;&#9;M213.963,207.758H464.76c20.567,0,37.24,16.733,37.24,37.375v170.267c0,20.642-16.673,37.375-37.24,37.375h-17.276v35.833&#10;&#9;&#9;&#9;&#9;&#9;l-69.623-35.833H213.963c-20.567,0-37.24-16.733-37.24-37.375V245.133C176.723,224.491,193.396,207.758,213.963,207.758z"/>
			</g>
		</g>
	</g>
</g>
<g>
</g>
<g>
</g>
<g>
</g>
<g>
</g>
<g>
</g>
<g>
</g>
<g>
</g>
<g>
</g>
<g>
</g>
<g>
</g>
<g>
</g>
<g>
</g>
<g>
</g>
<g>
</g>
<g>
</g>
</svg>