<svg height="512pt" viewBox="-26 0 511 512" width="512pt" xmlns="http://www.w3.org/2000/svg"><path d="m36.332031 358.335938v146.164062h112.988281l35.824219-120.578125v-93.140625l-88.582031 11.882812zm0 0" fill="#c7c5cb"/><path d="m424.21875 358.335938v146.164062h-112.984375l-35.824219-120.578125v-93.140625l88.582032 11.882812zm0 0" fill="#c7c5cb"/><path d="m48.734375 385.652344 136.410156-61.925782v-32.945312l-88.582031 11.882812-60.230469 55.671876v30.84375c4.269531-.550782 8.425781-1.71875 12.402344-3.527344zm0 0" fill="#b2b0bc"/><path d="m164.714844 245.78125-148.808594 67.558594c-6.792969 3.082031-9.796875 11.085937-6.714844 17.875l9.265625 20.410156c3.082031 6.789062 11.085938 9.796875 17.875 6.714844l148.808594-67.558594zm0 0" fill="#c76d33"/><path d="m92.828125 374.796875c-12.59375 0-22.800781 10.207031-22.800781 22.796875v47.941406c0 5.453125 4.421875 9.875 9.878906 9.875h25.839844c5.457031 0 9.878906-4.421875 9.878906-9.875v-47.941406c0-12.589844-10.207031-22.796875-22.796875-22.796875zm0 0" fill="#f8e86a"/><path d="m275.410156 290.78125v32.945312l136.410156 61.929688c3.976563 1.804688 8.132813 2.972656 12.398438 3.523438v-30.839844l-60.226562-55.675782zm0 0" fill="#b2b0bc"/><path d="m295.839844 245.78125 148.808594 67.558594c6.789062 3.082031 9.792968 11.085937 6.710937 17.875l-9.261719 20.410156c-3.085937 6.789062-11.089844 9.796875-17.878906 6.714844l-148.808594-67.558594zm0 0" fill="#c76d33"/><path d="m367.726562 374.796875c12.589844 0 22.796876 10.207031 22.796876 22.796875v47.941406c0 5.453125-4.421876 9.875-9.875 9.875h-25.84375c-5.453126 0-9.875-4.421875-9.875-9.875v-47.941406c0-12.589844 10.207031-22.796875 22.796874-22.796875zm0 0" fill="#f8e86a"/><path d="m230.277344 128.921875-80.957032 60.34375v315.234375h38.171876l42.785156-13.835938 42.785156 13.835938h38.171875v-315.234375zm0 0" fill="#e8e8e8"/><path d="m273.0625 504.5v-121.015625c0-23.628906-19.15625-42.785156-42.785156-42.785156s-42.785156 19.15625-42.785156 42.785156v121.015625zm0 0" fill="#de8957"/><path d="m230.277344 208.421875c-12.589844 0-22.796875 10.207031-22.796875 22.796875v47.941406c0 5.453125 4.421875 9.875 9.875 9.875h25.84375c5.453125 0 9.875-4.421875 9.875-9.875v-47.941406c0-12.589844-10.207031-22.796875-22.796875-22.796875zm0 0" fill="#fab659"/><path d="m268.445312 36.089844h-15.910156c-3.011718 0-5.457031-2.445313-5.457031-5.457032v-17.675781c0-3.011719-2.445313-5.457031-5.457031-5.457031h-22.6875c-3.015625 0-5.457032 2.445312-5.457032 5.457031v17.675781c0 3.011719-2.445312 5.457032-5.460937 5.457032h-15.910156c-3.011719 0-5.457031 2.441406-5.457031 5.457031v22.6875c0 3.015625 2.445312 5.457031 5.457031 5.457031h15.910156c3.015625 0 5.460937 2.445313 5.460937 5.460938v38.425781c0 3.015625 2.441407 5.460937 5.457032 5.460937h22.6875c3.011718 0 5.457031-2.445312 5.457031-5.460937v-38.425781c0-3.015625 2.445313-5.460938 5.457031-5.460938h15.910156c3.015626 0 5.460938-2.441406 5.460938-5.457031v-22.6875c0-3.015625-2.445312-5.457031-5.460938-5.457031zm0 0" fill="#de8957"/><path d="m149.320312 189.265625v61.132813c6.617188-.960938 12.964844-3.609376 18.289063-7.703126l62.667969-48.207031 62.667968 48.207031c5.324219 4.09375 11.667969 6.742188 18.289063 7.703126v-61.132813l-80.957031-60.34375zm0 0" fill="#c7c5cb"/><path d="m341.363281 179.746094-96.023437-73.863282c-8.878906-6.832031-21.246094-6.832031-30.128906 0l-96.023438 73.863282c-3.996094 3.074218-4.746094 8.808594-1.667969 12.804687l18.992188 24.691407c3.074219 4 8.808593 4.746093 12.808593 1.671874l80.957032-62.273437 80.957031 62.273437c3.996094 3.078126 9.730469 2.328126 12.804687-1.667968l18.996094-24.691406c3.074219-4 2.328125-9.734376-1.671875-12.808594zm0 0" fill="#c76d33"/><path d="m92.855469 367.296875c-16.707031 0-30.300781 13.589844-30.300781 30.296875v47.941406c0 9.582032 7.796874 17.375 17.378906 17.375h25.839844c9.582031 0 17.378906-7.796875 17.378906-17.375v-47.941406c0-16.707031-13.59375-30.296875-30.296875-30.296875zm15.296875 78.238281c0 1.3125-1.066406 2.375-2.375 2.375h-25.84375c-1.3125 0-2.375-1.066406-2.375-2.375v-47.941406c0-8.433594 6.859375-15.296875 15.296875-15.296875 8.433593 0 15.296875 6.863281 15.296875 15.296875zm0 0"/><path d="m217.382812 296.535156h25.84375c9.582032 0 17.375-7.792968 17.375-17.375v-47.9375c0-16.707031-13.59375-30.300781-30.300781-30.300781-16.703125 0-30.296875 13.59375-30.296875 30.300781v47.9375c0 9.582032 7.796875 17.375 17.378906 17.375zm-2.378906-65.316406c0-8.433594 6.863282-15.296875 15.296875-15.296875 8.4375 0 15.300781 6.863281 15.300781 15.296875v47.941406c0 1.3125-1.066406 2.375-2.375 2.375h-25.84375c-1.3125 0-2.375-1.066406-2.375-2.375v-47.941406zm0 0"/><path d="m337.457031 397.59375v47.941406c0 9.582032 7.792969 17.375 17.375 17.375h25.839844c9.582031 0 17.378906-7.796875 17.378906-17.375v-47.941406c0-16.707031-13.59375-30.296875-30.296875-30.296875-16.707031 0-30.296875 13.589844-30.296875 30.296875zm45.59375 0v47.941406c0 1.308594-1.066406 2.375-2.375 2.375h-25.84375c-1.308593 0-2.375-1.066406-2.375-2.375v-47.941406c0-8.433594 6.863281-15.296875 15.296875-15.296875 8.4375 0 15.296875 6.863281 15.296875 15.296875zm0 0"/><path d="m36.359375 512h387.886719c4.144531 0 7.5-3.359375 7.5-7.5v-137.535156c1.847656-.171875 3.683594-.589844 5.464844-1.261719 5.25-1.972656 9.421874-5.871094 11.742187-10.976563 0 0 9.257813-20.398437 9.265625-20.410156 4.738281-10.4375-.03125-23.078125-10.441406-27.804687l-129.015625-58.574219v-19.757812c4.300781-.503907 8.40625-2.664063 11.253906-6.363282l18.992187-24.691406c5.59375-7.269531 4.226563-17.730469-3.042968-23.324219l-91.355469-70.273437v-26.335938h13.867187c7.144532 0 12.957032-5.8125 12.957032-12.957031v-22.6875c0-7.144531-5.8125-12.957031-12.957032-12.957031h-13.867187v-15.632813c-.003906-7.144531-5.816406-12.957031-12.960937-12.957031h-22.6875c-7.144532 0-12.960938 5.8125-12.960938 12.957031v15.632813h-13.867188c-7.144531 0-12.957031 5.8125-12.957031 12.957031v22.6875c0 7.144531 5.8125 12.957031 12.957031 12.957031h13.867188v26.332032l-43.332031 33.335937c-3.285157 2.523437-3.898438 7.234375-1.375 10.519531 2.527343 3.28125 7.234375 3.894532 10.519531 1.371094l48-36.921875c6.179688-4.753906 14.808594-4.753906 20.984375 0l96.023437 73.859375c.710938.550781.847657 1.578125.296876 2.289062l-18.992188 24.695313c-.550781.710937-1.578125.847656-2.289062.296875l-80.960938-62.273438c-2.695312-2.074218-6.449219-2.074218-9.144531 0l-80.957031 62.273438c-.710938.546875-1.738282.414062-2.289063-.296875l-18.992187-24.695313c-.34375-.441406-.367188-.898437-.328126-1.207031.042969-.304687.183594-.742187.625-1.082031l24.480469-18.828125c3.28125-2.527344 3.894531-7.234375 1.371094-10.519531-2.527344-3.28125-7.234375-3.894532-10.519531-1.371094l-24.476563 18.828125c-3.523437 2.710937-5.777343 6.628906-6.351562 11.03125-.578125 4.40625.601562 8.773437 3.308593 12.292969l18.996094 24.691406c2.84375 3.699219 6.945313 5.863281 11.25 6.367188v19.757812l-129.015625 58.574219c-5.109375 2.316406-9.007812 6.484375-10.980469 11.738281-1.972656 5.253906-1.7812495 10.957031.539063 16.066406l9.265625 20.410156c3.128906 6.894532 9.75 11.53125 17.203125 12.222657v137.550781c0 4.140625 3.359375 7.5 7.5 7.5zm157.816406-449.808594v-18.601562h13.867188c7.144531 0 12.957031-5.8125 12.957031-12.957032v-15.632812h18.605469v15.632812c0 7.144532 5.8125 12.957032 12.957031 12.957032h13.871094v18.601562h-13.871094c-7.144531 0-12.957031 5.816406-12.957031 12.960938v19.488281c-.027344-.433594-4.761719-1.03125-5.199219-1.085937-2.722656-.351563-5.480469-.351563-8.203125 0-1.75.222656-3.511719.574218-5.203125 1.085937v-19.488281c0-7.144532-5.8125-12.960938-12.957031-12.960938zm-150.316406 300.976563 97.988281-44.484375v178.316406h-97.988281zm151.160156 133.832031v-113.515625c0-19.457031 15.828125-35.285156 35.285157-35.285156 19.457031 0 35.285156 15.828125 35.285156 35.285156v113.515625zm246.554688-176.832031c2.960937 1.34375 4.328125 4.992187 2.984375 7.945312 0 0-9.25 20.378907-9.265625 20.410157-1.351563 2.976562-4.96875 4.332031-7.945313 2.984374l-24.292968-11.03125c-3.695313-1.675781-8.253907.039063-9.929688 3.730469-1.679688 3.695313.042969 8.257813 3.726562 9.929688l19.894532 9.03125v133.832031h-97.988282v-178.316406l50.957032 23.132812c3.773437 1.714844 8.21875.042969 9.933594-3.726562 1.710937-3.773438.042968-8.21875-3.730469-9.929688l-57.160157-25.949218v-37.800782s122.710938 55.710938 122.816407 55.757813zm-137.816407-97.5625v274.394531h-23.167968v-113.515625c0-27.726563-22.558594-50.285156-50.285156-50.285156-27.730469 0-50.285157 22.558593-50.285157 50.285156v113.515625h-23.171875v-274.390625l73.457032-56.503906zm-278.445312 125.917969-9.265625-20.410157c-.660156-1.457031-.714844-3.089843-.152344-4.589843s1.679688-2.691407 3.136719-3.355469l122.816406-55.757813v37.800782l-108.589844 49.296874c-.789062.359376-1.617187.539063-2.46875.539063-2.355468 0-4.503906-1.382813-5.476562-3.523437zm0 0"/></svg>